<svg xmlns="http://www.w3.org/2000/svg" width="1000" height="1000" viewBox="0 0 750 750">
  <path fill="#fff" d="M206.4 285.3q-13.2 0-20.8 8.6t-7.7 23.6V432q0 15 7.7 23.8t20.8 8.9q13.1 0 21-8.9t7.9-23.8V317.5q0-15-8-23.6t-21-8.6z"/>
  <path fill="#fff" d="M300 150H112.5A37.5 37.5 0 0 0 75 187.7v375a37.5 37.5 0 0 0 37.5 37.5H300a37.5 37.5 0 0 0 37.5-37.5v-375A37.5 37.5 0 0 0 300 150zm-11.9 279q0 37-22.3 59t-59.4 22q-37.2 0-59.3-22T125 429V320q0-36.7 22.1-58.7t59.3-22q37.1 0 59.5 22t22.3 58.7zM637.5 150H450a37.5 37.5 0 0 0-37.5 37.4v375a37.5 37.5 0 0 0 37.5 37.4h187.5a37.5 37.5 0 0 0 37.5-37.5V187.4a37.5 37.5 0 0 0-37.5-37.5zM584 559.7h-52.9V391.2a2.5 2.5 0 0 0-.5-1.5 1 1 0 0 0-1.3-.4l-30.8 6-1.5.4c-2.3 0-3.4-1.4-3.4-4.1v-32a5.3 5.3 0 0 1 3.4-5.2l31.5-13.5a16 16 0 0 1 5.6-1.1h45.4a4.5 4.5 0 0 1 4.5 4.5zm40.9-353q0 37.1-22.3 59t-59.5 22q-37.1 0-59.3-22t-22-59v-16.9h52.8v19.9q0 15 7.7 23.8t20.8 8.8q13.1 0 21-8.8t7.9-23.8v-19.9h52.9z"/>
</svg>
